<?xml version="1.0" standalone="no"?>
<!DOCTYPE svg PUBLIC "-//W3C//DTD SVG 20010904//EN"
 "http://www.w3.org/TR/2001/REC-SVG-20010904/DTD/svg10.dtd">
<svg version="1.0" xmlns="http://www.w3.org/2000/svg"
 width="24.000000pt" height="12.000000pt" viewBox="0 0 24.000000 12.000000"
 preserveAspectRatio="xMidYMid meet">

<g transform="translate(0.000000,12.000000) scale(0.100000,-0.100000)"
fill="#000000" stroke="none">
<path d="M0 96 c0 -17 14 -33 55 -60 30 -20 59 -36 65 -36 6 0 35 16 65 36 41
27 55 43 55 60 0 13 -2 24 -5 24 -3 0 -30 -16 -60 -36 l-55 -37 -55 37 c-30
20 -57 36 -60 36 -3 0 -5 -11 -5 -24z"/>
</g>
</svg>
